<mxfile host="app.diagrams.net" modified="2023-04-26T09:35:17.660Z" agent="Mozilla/5.0 (Macintosh; Intel Mac OS X 10_15_7) AppleWebKit/537.36 (KHTML, like Gecko) Chrome/112.0.0.0 Safari/537.36" etag="tqgvkTDhI8l1ov9sUk3a" version="21.2.2" type="github">
  <diagram name="第 1 页" id="konaooMfx-FNWjSksM4i">
    <mxGraphModel dx="2069" dy="676" grid="1" gridSize="10" guides="1" tooltips="1" connect="1" arrows="1" fold="1" page="1" pageScale="1" pageWidth="827" pageHeight="1169" math="0" shadow="0">
      <root>
        <mxCell id="0" />
        <mxCell id="1" parent="0" />
        <mxCell id="XOUnzzXx8nCf_OlRj65V-2" value="&lt;font style=&quot;font-size: 16px;&quot;&gt;JSX&lt;/font&gt;" style="text;strokeColor=none;fillColor=none;html=1;fontSize=24;fontStyle=1;verticalAlign=middle;align=center;" vertex="1" parent="1">
          <mxGeometry x="470" y="440" width="100" height="40" as="geometry" />
        </mxCell>
        <mxCell id="XOUnzzXx8nCf_OlRj65V-3" value="&lt;font style=&quot;font-size: 16px;&quot;&gt;Template&lt;/font&gt;" style="text;strokeColor=none;fillColor=none;html=1;fontSize=24;fontStyle=1;verticalAlign=middle;align=center;" vertex="1" parent="1">
          <mxGeometry x="-550" y="440" width="100" height="40" as="geometry" />
        </mxCell>
        <mxCell id="XOUnzzXx8nCf_OlRj65V-5" value="&lt;b&gt;Angular&lt;/b&gt;" style="rounded=1;whiteSpace=wrap;html=1;fillColor=#d5e8d4;strokeColor=default;glass=0;sketch=1;curveFitting=1;jiggle=2;" vertex="1" parent="1">
          <mxGeometry x="-430" y="410" width="96" height="40" as="geometry" />
        </mxCell>
        <mxCell id="XOUnzzXx8nCf_OlRj65V-6" value="&lt;b&gt;Solid&lt;/b&gt;" style="rounded=1;whiteSpace=wrap;html=1;fillColor=#d5e8d4;strokeColor=default;glass=0;sketch=1;curveFitting=1;jiggle=2;" vertex="1" parent="1">
          <mxGeometry x="-20" y="360" width="96" height="40" as="geometry" />
        </mxCell>
        <mxCell id="XOUnzzXx8nCf_OlRj65V-7" value="&lt;b&gt;Vue&lt;/b&gt;" style="rounded=1;whiteSpace=wrap;html=1;fillColor=#d5e8d4;strokeColor=default;glass=0;sketch=1;curveFitting=1;jiggle=2;" vertex="1" parent="1">
          <mxGeometry x="-80" y="410" width="96" height="40" as="geometry" />
        </mxCell>
        <mxCell id="XOUnzzXx8nCf_OlRj65V-8" value="&lt;b&gt;Svelte&lt;/b&gt;" style="rounded=1;whiteSpace=wrap;html=1;fillColor=#d5e8d4;strokeColor=default;glass=0;sketch=1;curveFitting=1;jiggle=2;" vertex="1" parent="1">
          <mxGeometry x="-310" y="330" width="96" height="40" as="geometry" />
        </mxCell>
        <mxCell id="XOUnzzXx8nCf_OlRj65V-9" value="&lt;b&gt;Alpinejs&lt;/b&gt;" style="rounded=1;whiteSpace=wrap;html=1;fillColor=#d5e8d4;strokeColor=default;glass=0;sketch=1;curveFitting=1;jiggle=2;" vertex="1" parent="1">
          <mxGeometry x="-310" y="410" width="96" height="40" as="geometry" />
        </mxCell>
        <mxCell id="XOUnzzXx8nCf_OlRj65V-10" value="&lt;b&gt;Lit&lt;/b&gt;" style="rounded=1;whiteSpace=wrap;html=1;fillColor=#d5e8d4;strokeColor=default;glass=0;sketch=1;curveFitting=1;jiggle=2;" vertex="1" parent="1">
          <mxGeometry x="-100" y="200" width="96" height="40" as="geometry" />
        </mxCell>
        <mxCell id="XOUnzzXx8nCf_OlRj65V-11" value="&lt;b&gt;Preact&lt;/b&gt;" style="rounded=1;whiteSpace=wrap;html=1;fillColor=#d5e8d4;strokeColor=default;glass=0;sketch=1;curveFitting=1;jiggle=2;" vertex="1" parent="1">
          <mxGeometry x="230" y="410" width="96" height="40" as="geometry" />
        </mxCell>
        <mxCell id="XOUnzzXx8nCf_OlRj65V-12" value="" style="endArrow=classic;html=1;rounded=0;" edge="1" parent="1">
          <mxGeometry width="50" height="50" relative="1" as="geometry">
            <mxPoint y="460" as="sourcePoint" />
            <mxPoint y="100" as="targetPoint" />
          </mxGeometry>
        </mxCell>
        <mxCell id="XOUnzzXx8nCf_OlRj65V-13" value="&lt;font style=&quot;font-size: 16px;&quot;&gt;Web Component&lt;/font&gt;" style="text;strokeColor=none;fillColor=none;html=1;fontSize=24;fontStyle=1;verticalAlign=middle;align=center;" vertex="1" parent="1">
          <mxGeometry x="-40" y="50" width="100" height="40" as="geometry" />
        </mxCell>
        <mxCell id="XOUnzzXx8nCf_OlRj65V-14" value="&lt;b&gt;Polymer&lt;/b&gt;" style="rounded=1;whiteSpace=wrap;html=1;fillColor=#d5e8d4;strokeColor=default;glass=0;sketch=1;curveFitting=1;jiggle=2;" vertex="1" parent="1">
          <mxGeometry x="-100" y="140" width="96" height="40" as="geometry" />
        </mxCell>
        <mxCell id="XOUnzzXx8nCf_OlRj65V-18" value="" style="endArrow=classic;startArrow=classic;html=1;rounded=0;entryX=0;entryY=0.5;entryDx=0;entryDy=0;exitX=1;exitY=0.5;exitDx=0;exitDy=0;" edge="1" parent="1" source="XOUnzzXx8nCf_OlRj65V-3" target="XOUnzzXx8nCf_OlRj65V-2">
          <mxGeometry width="50" height="50" relative="1" as="geometry">
            <mxPoint x="-420" y="460" as="sourcePoint" />
            <mxPoint x="440" y="460" as="targetPoint" />
          </mxGeometry>
        </mxCell>
        <mxCell id="XOUnzzXx8nCf_OlRj65V-4" value="&lt;b&gt;React&lt;/b&gt;" style="rounded=1;whiteSpace=wrap;html=1;fillColor=#d5e8d4;strokeColor=default;glass=0;sketch=1;curveFitting=1;jiggle=2;" vertex="1" parent="1">
          <mxGeometry x="350" y="410" width="96" height="40" as="geometry" />
        </mxCell>
        <mxCell id="XOUnzzXx8nCf_OlRj65V-32" value="" style="edgeStyle=orthogonalEdgeStyle;rounded=0;orthogonalLoop=1;jettySize=auto;html=1;sketch=1;curveFitting=1;jiggle=2;" edge="1" parent="1" source="XOUnzzXx8nCf_OlRj65V-19" target="XOUnzzXx8nCf_OlRj65V-20">
          <mxGeometry relative="1" as="geometry" />
        </mxCell>
        <mxCell id="XOUnzzXx8nCf_OlRj65V-40" style="edgeStyle=orthogonalEdgeStyle;rounded=0;orthogonalLoop=1;jettySize=auto;html=1;exitX=0.5;exitY=1;exitDx=0;exitDy=0;entryX=0;entryY=0.5;entryDx=0;entryDy=0;sketch=1;curveFitting=1;jiggle=2;strokeColor=default;" edge="1" parent="1" source="XOUnzzXx8nCf_OlRj65V-19" target="XOUnzzXx8nCf_OlRj65V-30">
          <mxGeometry relative="1" as="geometry" />
        </mxCell>
        <mxCell id="XOUnzzXx8nCf_OlRj65V-19" value="&lt;b&gt;Svelte&lt;/b&gt;" style="rounded=1;whiteSpace=wrap;html=1;fillColor=#d5e8d4;strokeColor=default;glass=0;sketch=1;curveFitting=1;jiggle=2;" vertex="1" parent="1">
          <mxGeometry x="-336" y="760" width="96" height="40" as="geometry" />
        </mxCell>
        <mxCell id="XOUnzzXx8nCf_OlRj65V-20" value="SvelteKit" style="ellipse;whiteSpace=wrap;html=1;aspect=fixed;fillColor=none;sketch=1;curveFitting=1;jiggle=2;" vertex="1" parent="1">
          <mxGeometry x="-340" y="600" width="100" height="100" as="geometry" />
        </mxCell>
        <mxCell id="XOUnzzXx8nCf_OlRj65V-33" value="" style="edgeStyle=orthogonalEdgeStyle;rounded=0;orthogonalLoop=1;jettySize=auto;html=1;sketch=1;curveFitting=1;jiggle=2;" edge="1" parent="1" source="XOUnzzXx8nCf_OlRj65V-21" target="XOUnzzXx8nCf_OlRj65V-22">
          <mxGeometry relative="1" as="geometry" />
        </mxCell>
        <mxCell id="XOUnzzXx8nCf_OlRj65V-38" style="edgeStyle=orthogonalEdgeStyle;rounded=0;orthogonalLoop=1;jettySize=auto;html=1;exitX=0.5;exitY=1;exitDx=0;exitDy=0;sketch=1;curveFitting=1;jiggle=2;" edge="1" parent="1" source="XOUnzzXx8nCf_OlRj65V-21" target="XOUnzzXx8nCf_OlRj65V-30">
          <mxGeometry relative="1" as="geometry" />
        </mxCell>
        <mxCell id="XOUnzzXx8nCf_OlRj65V-21" value="&lt;b&gt;Vue&lt;/b&gt;" style="rounded=1;whiteSpace=wrap;html=1;fillColor=#d5e8d4;strokeColor=default;glass=0;sketch=1;curveFitting=1;jiggle=2;" vertex="1" parent="1">
          <mxGeometry x="-160" y="760" width="96" height="40" as="geometry" />
        </mxCell>
        <mxCell id="XOUnzzXx8nCf_OlRj65V-22" value="Nuxt" style="ellipse;whiteSpace=wrap;html=1;aspect=fixed;fillColor=none;sketch=1;curveFitting=1;jiggle=2;" vertex="1" parent="1">
          <mxGeometry x="-162" y="590" width="100" height="100" as="geometry" />
        </mxCell>
        <mxCell id="XOUnzzXx8nCf_OlRj65V-34" value="" style="edgeStyle=orthogonalEdgeStyle;rounded=0;orthogonalLoop=1;jettySize=auto;html=1;sketch=1;curveFitting=1;jiggle=2;" edge="1" parent="1" source="XOUnzzXx8nCf_OlRj65V-23" target="XOUnzzXx8nCf_OlRj65V-24">
          <mxGeometry relative="1" as="geometry" />
        </mxCell>
        <mxCell id="XOUnzzXx8nCf_OlRj65V-37" style="edgeStyle=orthogonalEdgeStyle;rounded=0;orthogonalLoop=1;jettySize=auto;html=1;sketch=1;curveFitting=1;jiggle=2;" edge="1" parent="1" source="XOUnzzXx8nCf_OlRj65V-23" target="XOUnzzXx8nCf_OlRj65V-30">
          <mxGeometry relative="1" as="geometry">
            <Array as="points">
              <mxPoint x="70" y="1010" />
            </Array>
          </mxGeometry>
        </mxCell>
        <mxCell id="XOUnzzXx8nCf_OlRj65V-23" value="&lt;b&gt;React&lt;/b&gt;" style="rounded=1;whiteSpace=wrap;html=1;fillColor=#d5e8d4;strokeColor=default;glass=0;sketch=1;curveFitting=1;jiggle=2;" vertex="1" parent="1">
          <mxGeometry x="20" y="755" width="96" height="40" as="geometry" />
        </mxCell>
        <mxCell id="XOUnzzXx8nCf_OlRj65V-24" value="Next" style="ellipse;whiteSpace=wrap;html=1;aspect=fixed;fillColor=none;sketch=1;curveFitting=1;jiggle=2;" vertex="1" parent="1">
          <mxGeometry x="16" y="585" width="100" height="100" as="geometry" />
        </mxCell>
        <mxCell id="XOUnzzXx8nCf_OlRj65V-35" value="" style="edgeStyle=orthogonalEdgeStyle;rounded=0;orthogonalLoop=1;jettySize=auto;html=1;sketch=1;curveFitting=1;jiggle=2;" edge="1" parent="1" source="XOUnzzXx8nCf_OlRj65V-25" target="XOUnzzXx8nCf_OlRj65V-26">
          <mxGeometry relative="1" as="geometry" />
        </mxCell>
        <mxCell id="XOUnzzXx8nCf_OlRj65V-36" style="edgeStyle=orthogonalEdgeStyle;rounded=0;orthogonalLoop=1;jettySize=auto;html=1;entryX=0.983;entryY=0.586;entryDx=0;entryDy=0;entryPerimeter=0;sketch=1;curveFitting=1;jiggle=2;" edge="1" parent="1" source="XOUnzzXx8nCf_OlRj65V-25" target="XOUnzzXx8nCf_OlRj65V-30">
          <mxGeometry relative="1" as="geometry">
            <Array as="points">
              <mxPoint x="250" y="1010" />
              <mxPoint x="-73" y="1010" />
            </Array>
          </mxGeometry>
        </mxCell>
        <mxCell id="XOUnzzXx8nCf_OlRj65V-25" value="&lt;b&gt;Solid&lt;/b&gt;" style="rounded=1;whiteSpace=wrap;html=1;fillColor=#d5e8d4;strokeColor=default;glass=0;sketch=1;curveFitting=1;jiggle=2;" vertex="1" parent="1">
          <mxGeometry x="190" y="755" width="96" height="40" as="geometry" />
        </mxCell>
        <mxCell id="XOUnzzXx8nCf_OlRj65V-26" value="SolidStart" style="ellipse;whiteSpace=wrap;html=1;aspect=fixed;fillColor=none;sketch=1;curveFitting=1;jiggle=2;" vertex="1" parent="1">
          <mxGeometry x="186" y="580" width="100" height="100" as="geometry" />
        </mxCell>
        <mxCell id="XOUnzzXx8nCf_OlRj65V-41" style="edgeStyle=orthogonalEdgeStyle;rounded=0;orthogonalLoop=1;jettySize=auto;html=1;sketch=1;curveFitting=1;jiggle=2;" edge="1" parent="1" source="XOUnzzXx8nCf_OlRj65V-27">
          <mxGeometry relative="1" as="geometry">
            <mxPoint x="-250" y="1060" as="targetPoint" />
            <Array as="points">
              <mxPoint x="-442" y="1050" />
              <mxPoint x="-249" y="1050" />
            </Array>
          </mxGeometry>
        </mxCell>
        <mxCell id="XOUnzzXx8nCf_OlRj65V-27" value="&lt;b&gt;Alpinejs&lt;/b&gt;" style="rounded=1;whiteSpace=wrap;html=1;fillColor=#d5e8d4;strokeColor=default;glass=0;sketch=1;curveFitting=1;jiggle=2;" vertex="1" parent="1">
          <mxGeometry x="-490" y="760" width="96" height="40" as="geometry" />
        </mxCell>
        <mxCell id="XOUnzzXx8nCf_OlRj65V-42" style="edgeStyle=orthogonalEdgeStyle;rounded=0;orthogonalLoop=1;jettySize=auto;html=1;sketch=1;curveFitting=1;jiggle=2;" edge="1" parent="1" source="XOUnzzXx8nCf_OlRj65V-28" target="XOUnzzXx8nCf_OlRj65V-30">
          <mxGeometry relative="1" as="geometry">
            <Array as="points">
              <mxPoint x="-592" y="1030" />
            </Array>
          </mxGeometry>
        </mxCell>
        <mxCell id="XOUnzzXx8nCf_OlRj65V-28" value="&lt;b&gt;Lit&lt;/b&gt;" style="rounded=1;whiteSpace=wrap;html=1;fillColor=#d5e8d4;strokeColor=default;glass=0;sketch=1;curveFitting=1;jiggle=2;" vertex="1" parent="1">
          <mxGeometry x="-640" y="760" width="96" height="40" as="geometry" />
        </mxCell>
        <mxCell id="XOUnzzXx8nCf_OlRj65V-30" value="Astro" style="ellipse;whiteSpace=wrap;html=1;aspect=fixed;fillColor=none;sketch=1;curveFitting=1;jiggle=2;" vertex="1" parent="1">
          <mxGeometry x="-250" y="920" width="180" height="180" as="geometry" />
        </mxCell>
      </root>
    </mxGraphModel>
  </diagram>
</mxfile>
